<svg width="512" height="512" viewBox="0 0 512 512" fill="none" xmlns="http://www.w3.org/2000/svg">
<g clip-path="url(#clip0_441_94)">
<path d="M256 512C114.617 512 0 397.383 0 256C0 114.617 114.617 0 256 0C397.383 0 512 114.617 512 256C512 397.383 397.383 512 256 512Z" fill="#F1B14F"/>
<path d="M319.592 290.925C317.112 290.925 314.694 291.189 312.358 291.695C309.743 292.263 307.15 293.157 304.633 294.382C303.434 294.966 302.287 295.612 301.192 296.309C297.038 298.975 293.493 302.515 290.822 306.685C288.223 310.757 286.518 315.34 285.81 320.104C285.614 321.442 285.495 322.801 285.459 324.186C285.387 327.023 285.661 329.787 286.239 332.438C286.813 335.022 287.691 337.574 288.9 340.054C289.479 341.237 290.114 342.374 290.802 343.454C293.489 347.66 297.08 351.246 301.302 353.928C305.379 356.506 309.957 358.196 314.721 358.888C316.028 359.074 317.356 359.188 318.705 359.224L319.614 359.234C322.048 359.234 324.425 358.976 326.714 358.49C329.375 357.922 332.015 357.023 334.568 355.777C335.777 355.188 336.94 354.532 338.045 353.824C342.189 351.158 345.729 347.618 348.39 343.459C350.979 339.392 352.684 334.82 353.392 330.066C353.588 328.728 353.707 327.358 353.743 325.974C353.815 323.142 353.547 320.383 352.963 317.732C352.389 315.148 351.511 312.591 350.297 310.105C349.713 308.906 349.067 307.754 348.364 306.653C345.662 302.447 342.065 298.861 337.828 296.184C333.818 293.657 329.318 291.988 324.636 291.286C323.277 291.084 321.892 290.966 320.487 290.924H319.592V290.925ZM112.426 200.681H92.223L123.794 230.95C122.311 228.568 120.937 226.083 119.681 223.504C116.069 216.099 113.677 208.416 112.426 200.681ZM193.126 153.51C188.104 153.51 182.998 154.626 178.177 156.977C166.055 162.888 159.002 175.026 158.981 187.659C158.976 192.697 160.087 197.818 162.443 202.654C168.365 214.792 180.518 221.85 193.172 221.85C198.194 221.85 203.3 220.734 208.121 218.388C220.243 212.477 227.296 200.339 227.317 187.706C227.322 182.668 226.211 177.547 223.855 172.711C217.934 160.563 205.776 153.505 193.126 153.51ZM273.713 125.509L259.421 139.801C262.118 143.542 264.531 147.562 266.619 151.846C270.231 159.25 272.623 166.939 273.874 174.669H280.116H294.072V200.68H273.858C271.827 213.221 266.898 225.193 259.421 235.553L267.389 243.521L273.708 249.84L255.313 268.235L241.021 253.943C237.28 256.64 233.26 259.053 228.976 261.141C221.566 264.753 213.888 267.145 206.153 268.396V277.237V288.594H180.142V268.375C167.601 266.344 155.634 261.415 145.269 253.938L144.613 254.594L130.982 268.225L112.587 249.83L225.737 362.98L219.443 343.014L238.711 336.937C236.835 324.169 238.055 311.298 242.023 299.341L224.083 290.004L236.097 266.933L254.022 276.265C261.401 266.334 271.151 257.932 282.942 252.016L276.86 232.727L301.667 224.904L307.744 244.172C311.681 243.593 315.629 243.309 319.556 243.309C328.366 243.309 337.073 244.74 345.345 247.484L354.682 229.544L377.753 241.558L368.416 259.493C378.347 266.872 386.749 276.622 392.66 288.413L411.949 282.331L419.772 307.138L401.449 312.915L400.503 313.215C402.379 325.983 401.159 338.854 397.191 350.811L415.131 360.148L403.117 383.219L385.192 373.887C377.813 383.818 368.063 392.22 356.272 398.136L362.354 417.425L337.547 425.248L334.839 416.655L331.475 405.98C327.538 406.559 323.59 406.843 319.663 406.843C310.853 406.843 302.146 405.412 293.874 402.668L284.537 420.608L261.466 408.594L267.935 396.167L270.798 390.669C260.867 383.29 252.465 373.54 246.549 361.749L245.645 362.033L227.26 367.831L263.823 404.068L261.467 408.594L348.202 494.813C415.778 468.709 469.474 414.79 495.269 347.064L273.713 125.509ZM112.592 125.509L118.751 131.668L112.592 125.509ZM141.827 117.96L145.273 121.406L141.827 117.96ZM158.801 113.501C158.305 113.728 157.814 113.966 157.323 114.204L156.873 114.426L157.323 114.204C157.809 113.966 158.305 113.734 158.801 113.501ZM206.158 86.751V106.97C216.828 108.701 227.09 112.53 236.298 118.234L206.158 86.751Z" fill="#F0973E"/>
<path d="M231.322 174.669C232.712 178.756 233.503 183.117 233.503 187.675C233.503 192.233 232.712 196.593 231.322 200.681H294.072V174.67L231.322 174.669ZM180.147 149.5C184.234 148.11 188.595 147.319 193.153 147.319C197.711 147.319 202.071 148.11 206.159 149.5V86.75H180.148L180.147 149.5ZM229.332 169.885L273.712 125.505L255.317 107.11L210.937 151.49C218.921 155.427 225.4 161.902 229.332 169.885ZM152.797 187.675C152.797 183.118 153.588 178.757 154.978 174.669H92.228V200.68H154.978C153.582 196.594 152.797 192.233 152.797 187.675ZM175.362 151.495L130.982 107.115L112.587 125.51L156.967 169.89C160.899 161.902 167.379 155.427 175.362 151.495ZM156.967 205.466L112.587 249.846L130.982 268.241L175.362 223.861C167.379 219.923 160.899 213.449 156.967 205.466ZM210.938 223.855L255.318 268.235L273.713 249.84L229.333 205.46C225.4 213.449 218.921 219.923 210.938 223.855ZM180.147 225.85V288.6H206.158V225.85C202.071 227.24 197.71 228.036 193.152 228.036C188.595 228.03 184.229 227.24 180.147 225.85Z" fill="#2B8199"/>
<path d="M145.274 253.949L144.612 254.605L145.274 253.949Z" fill="#A27E36"/>
<path d="M139.988 249.799C141.471 251.473 143.011 253.075 144.613 254.61L145.269 253.949C143.46 252.641 141.698 251.257 139.988 249.799Z" fill="#1D6B86"/>
<path d="M280.115 174.669H273.873C275.284 183.386 275.237 192.16 273.857 200.68H282.677C283.215 192.057 282.42 183.288 280.115 174.669Z" fill="#1D6B86"/>
<path d="M259.421 235.554C254.399 242.514 248.234 248.751 241.026 253.944L248.947 261.865C256.155 256.672 262.371 250.487 267.394 243.522L259.421 235.554Z" fill="#1D6B86"/>
<path d="M180.147 268.386V274.592C187.019 276.421 194.129 277.393 201.312 277.393C202.924 277.393 204.541 277.346 206.159 277.243V268.402C201.85 269.1 197.514 269.441 193.215 269.441C188.817 269.435 184.446 269.078 180.147 268.386Z" fill="#1D6B86"/>
<path d="M255.013 134.216C256.553 135.999 258.025 137.859 259.421 139.797L260.129 139.089C258.491 137.383 256.78 135.756 255.013 134.216Z" fill="#1D6B86"/>
<path d="M157.318 114.204C116.741 133.994 99.891 182.927 119.681 223.504C139.471 264.081 188.404 280.931 228.981 261.141C269.558 241.351 286.408 192.413 266.618 151.841C246.834 111.269 197.896 94.414 157.318 114.204ZM208.127 218.378C191.168 226.645 170.722 219.608 162.45 202.649C154.183 185.69 161.22 165.244 178.179 156.972C195.138 148.7 215.589 155.742 223.856 172.701C232.123 189.659 225.08 210.111 208.127 218.378Z" fill="#3194B0"/>
<path d="M171.223 142.716C146.39 154.828 136.081 184.771 148.188 209.604C160.3 234.437 190.243 244.746 215.076 232.639C239.909 220.527 250.218 190.584 238.111 165.751C226 140.918 196.056 130.604 171.223 142.716ZM208.127 218.378C191.168 226.645 170.722 219.608 162.45 202.649C154.183 185.69 161.22 165.244 178.179 156.972C195.138 148.7 215.589 155.742 223.856 172.701C232.123 189.659 225.08 210.111 208.127 218.378Z" fill="#2B8199"/>
<path d="M131.989 176.788C130.594 177.465 128.966 177.666 127.354 177.238C123.794 176.287 121.675 172.634 122.626 169.079C128.098 148.54 142.189 131.416 161.286 122.105C164.598 120.493 168.587 121.867 170.204 125.174C171.816 128.481 170.447 132.475 167.135 134.092C151.52 141.708 139.992 155.711 135.517 172.515C134.996 174.452 133.668 175.966 131.989 176.788Z" fill="#CEEAF2"/>
<path d="M143.202 190.615C143.652 198.361 145.873 205.631 149.454 212.028C149.015 211.232 148.591 210.426 148.188 209.599C145.201 203.471 143.574 197.028 143.202 190.615ZM155.324 154.926C147.718 163.705 143.114 175.15 143.114 187.675L143.124 188.621C142.902 176.313 147.248 164.258 155.324 154.926ZM190.946 137.688C179.113 138.2 168.35 142.824 160.036 150.167C163.338 147.258 167.079 144.736 171.223 142.716C177.589 139.611 184.291 137.978 190.946 137.688ZM191.003 137.688H190.967H191.003ZM193.152 137.642L192.093 137.652L193.116 137.642C201.378 137.642 209.496 139.699 216.725 143.553C209.703 139.781 201.678 137.642 193.152 137.642Z" fill="#217794"/>
<path d="M193.116 137.642L192.093 137.652L191.003 137.688H190.967H190.946C184.291 137.977 177.594 139.61 171.228 142.716C167.079 144.736 163.343 147.258 160.041 150.167C158.367 151.645 156.791 153.236 155.329 154.926C147.253 164.258 142.907 176.313 143.129 188.621C143.139 189.293 143.165 189.954 143.206 190.621C143.583 197.033 145.206 203.477 148.192 209.605C148.595 210.432 149.019 211.238 149.458 212.034C152.662 217.754 156.955 222.776 162.055 226.833C155.26 218.292 151.173 207.498 151.173 195.737C151.173 168.103 173.572 145.704 201.206 145.704C212.966 145.704 223.761 149.791 232.302 156.586C228.06 151.254 222.763 146.805 216.718 143.56C209.496 139.698 201.373 137.642 193.116 137.642Z" fill="#1D6781"/>
<path d="M359.477 331.177C358.826 335.445 357.513 339.682 355.405 343.723C353.297 347.764 350.584 351.272 347.463 354.254L403.123 383.231L415.137 360.16L359.477 331.177ZM325.699 285.22C329.967 285.871 334.199 287.184 338.245 289.292C342.291 291.4 345.794 294.113 348.776 297.234L377.753 241.574L354.682 229.56L325.699 285.22ZM359.916 326.015L419.772 307.145L411.949 282.338L352.093 301.208C357.358 308.379 360.118 317.117 359.916 326.015ZM283.815 306.452C285.918 302.411 288.636 298.903 291.757 295.921L236.097 266.944L224.083 290.015L279.743 318.992C280.394 314.73 281.712 310.492 283.815 306.452ZM320.537 284.776L301.667 224.92L276.86 232.743L295.73 292.599C302.902 287.333 311.64 284.579 320.537 284.776ZM279.304 324.154L219.448 343.024L227.271 367.831L287.127 348.961C281.856 341.79 279.102 333.052 279.304 324.154ZM318.682 365.393L337.558 425.249L362.365 417.426L343.49 357.57C336.313 362.835 327.58 365.59 318.682 365.393ZM290.444 352.94L261.467 408.6L284.538 420.614L313.515 364.954C309.247 364.303 305.01 362.99 300.969 360.882C296.934 358.779 293.425 356.061 290.444 352.94Z" fill="#CEEAF2"/>
<path d="M246.555 361.756L245.65 362.04L246.555 361.756Z" fill="#2E582B"/>
<path d="M243.744 355.524C244.292 357.73 244.927 359.906 245.651 362.04L246.555 361.756L246.142 360.914C245.268 359.136 244.472 357.338 243.744 355.524Z" fill="#2888A7"/>
<path d="M397.197 350.812C394.464 359.054 390.428 366.856 385.199 373.894L393.012 377.961C397.471 370.562 400.814 362.413 402.752 353.707L397.197 350.812Z" fill="#A6D7E6"/>
<path d="M331.481 405.981L334.845 416.656L331.481 405.981Z" fill="#C28B3B"/>
<path d="M356.278 398.137L355.436 398.55C347.665 402.338 339.594 404.787 331.476 405.98L334.84 416.655C343.629 415.374 352 412.759 359.668 408.899L356.278 398.137Z" fill="#A6D7E6"/>
<path d="M270.804 390.676L267.941 396.174C274.369 402.049 281.711 406.942 289.788 410.539L293.88 402.675C285.644 399.941 277.836 395.905 270.804 390.676Z" fill="#A6D7E6"/>
<path d="M399.16 306.214C399.713 308.539 400.162 310.875 400.503 313.215L401.449 312.915C400.788 310.637 400.023 308.405 399.16 306.214Z" fill="#A6D7E6"/>
<path d="M283.778 251.613C243.201 271.403 226.351 320.336 246.141 360.913C265.931 401.49 314.869 418.34 355.441 398.55C396.018 378.76 412.868 329.822 393.078 289.25C373.288 248.678 324.356 231.823 283.778 251.613ZM334.582 355.788C317.623 364.055 297.172 357.018 288.905 340.059C280.638 323.1 287.675 302.649 304.634 294.382C321.593 286.115 342.044 293.152 350.311 310.111C358.583 327.069 351.54 347.52 334.582 355.788Z" fill="#CEEAF2"/>
<path d="M326.728 358.505C324.434 358.991 322.057 359.249 319.628 359.249L318.719 359.239C317.37 359.203 316.042 359.089 314.735 358.903C316.352 359.136 317.99 359.26 319.639 359.26C321.995 359.255 324.371 359.007 326.728 358.505ZM348.404 343.469C345.743 347.629 342.203 351.173 338.059 353.834C342.322 351.106 345.81 347.546 348.404 343.469ZM290.811 343.459C293.565 347.789 297.177 351.318 301.311 353.933C297.089 351.251 293.498 347.665 290.811 343.459ZM285.809 320.103C285.21 324.149 285.328 328.329 286.243 332.437C285.659 329.786 285.385 327.022 285.463 324.185C285.499 322.806 285.613 321.442 285.809 320.103ZM352.977 317.737C353.556 320.388 353.83 323.147 353.757 325.979C353.721 327.369 353.602 328.733 353.406 330.071C354.01 326.03 353.886 321.85 352.977 317.737ZM301.192 296.309C296.919 299.037 293.426 302.603 290.822 306.685C293.493 302.52 297.037 298.975 301.192 296.309ZM337.842 296.19C342.079 298.867 345.681 302.453 348.378 306.659C345.613 302.334 341.986 298.804 337.842 296.19ZM319.587 290.919C317.184 290.919 314.761 291.172 312.363 291.699C314.699 291.193 317.117 290.929 319.597 290.929L320.512 290.939C321.917 290.975 323.302 291.099 324.661 291.301C322.981 291.043 321.287 290.919 319.587 290.919Z" fill="#C28B3B"/>
<path d="M312.358 291.694C314.756 291.172 317.179 290.914 319.582 290.914C321.287 290.914 322.977 291.043 324.651 291.291C329.451 292.004 333.921 293.709 337.843 296.189C341.987 298.798 345.614 302.328 348.379 306.658C350.523 310.001 352.104 313.742 352.978 317.736C353.887 321.849 354.006 326.029 353.407 330.075C352.694 334.958 350.947 339.5 348.405 343.468C345.811 347.545 342.323 351.105 338.06 353.833C334.645 356.029 330.816 357.631 326.728 358.499C324.372 359.005 321.995 359.248 319.634 359.248C317.986 359.248 316.348 359.129 314.73 358.891C309.837 358.193 305.29 356.457 301.311 353.931C297.177 351.316 293.565 347.782 290.811 343.457C288.682 340.129 287.116 336.409 286.243 332.435C285.334 328.322 285.21 324.142 285.809 320.101C286.522 315.208 288.274 310.656 290.821 306.682C293.425 302.605 296.918 299.035 301.191 296.306C304.561 294.149 308.333 292.568 312.358 291.694ZM338.286 278.663C346.373 281.934 353.415 287.256 358.763 293.984C350.222 287.189 339.428 283.102 327.667 283.102C300.033 283.102 277.634 305.501 277.634 333.135C277.634 344.895 281.721 355.69 288.516 364.231C281.969 359.028 276.75 352.223 273.464 344.41C280.843 361.994 298.003 374.55 318.304 375.082L319.637 375.097C346.656 375.097 368.906 353.555 369.619 326.387C370.178 304.917 357.115 286.243 338.286 278.663Z" fill="#A6D7E6"/>
<path d="M258.449 314.197C257.054 314.874 255.426 315.075 253.814 314.647C250.254 313.696 248.135 310.043 249.086 306.488C254.558 285.949 268.649 268.825 287.746 259.514C291.058 257.902 295.047 259.276 296.664 262.583C298.276 265.89 296.907 269.884 293.595 271.501C277.98 279.117 266.452 293.12 261.977 309.924C261.451 311.862 260.129 313.376 258.449 314.197Z" fill="white"/>
<path d="M319.607 275.051C291.973 275.051 269.574 297.45 269.574 325.084C269.574 331.941 270.959 338.472 273.46 344.419C270.799 338.079 269.409 331.088 269.6 323.771C270.313 296.597 292.563 275.061 319.582 275.061L320.92 275.077C327.059 275.237 332.908 276.498 338.287 278.663C332.52 276.333 326.216 275.051 319.607 275.051Z" fill="#A6D7E6"/>
<path d="M319.587 275.062C292.568 275.062 270.318 296.604 269.605 323.773C269.414 331.09 270.804 338.081 273.465 344.421C276.751 352.234 281.97 359.034 288.517 364.242C281.722 355.701 277.635 344.907 277.635 333.146C277.635 305.512 300.035 283.113 327.668 283.113C339.428 283.113 350.223 287.2 358.764 293.995C353.411 287.267 346.373 281.94 338.287 278.674C332.908 276.509 327.059 275.248 320.92 275.088L319.587 275.062Z" fill="#86C5DA"/>
</g>
<defs>
<clipPath id="clip0_441_94">
<rect width="512" height="512" fill="white"/>
</clipPath>
</defs>
</svg>
