<svg width="161" height="161" viewBox="0 0 161 161" fill="none" xmlns="http://www.w3.org/2000/svg">
<rect width="161" height="161" fill="#ECDFDF"/>
<path d="M109.876 82.2399V69.2976L96.6184 67.1884C95.7293 63.5305 94.2867 60.0892 92.381 56.9603L100.265 46.0934L101.721 36.9419H91.1131L80.246 44.8261C77.1173 42.9204 73.676 41.478 70.0181 40.589L67.9089 27.331H54.9666L52.8574 40.5895C49.1998 41.4786 45.759 42.9212 42.6307 44.8269L42.3705 36.9425H31.763L22.6115 46.094L30.4962 56.9619C28.5908 60.0903 27.1485 63.531 26.2597 67.1884L13 69.2976V82.2399L26.2597 84.3494C27.1487 88.0067 28.5908 91.4472 30.4962 94.5756L22.6115 105.444L31.763 114.596H42.3705L42.6312 106.711C45.7596 108.617 49.2003 110.059 52.8577 110.948L54.9672 124.207H67.9095L70.0187 110.949C73.6763 110.059 77.1173 108.617 80.246 106.712L91.1134 114.596H101.721L100.265 105.444L92.381 94.5772C94.287 91.4486 95.7293 88.0073 96.6187 84.3497L109.876 82.2399ZM61.4389 83.4812C57.1791 83.4812 53.7233 80.0282 53.7233 75.7685C53.7233 71.5087 57.1791 68.0557 61.4389 68.0557C65.6986 68.0557 69.1517 71.5087 69.1517 75.7685C69.1517 80.0282 65.6986 83.4812 61.4389 83.4812Z" fill="#999999"/>
<path d="M120.483 82.2399V69.2976L107.226 67.1884C106.337 63.5305 104.894 60.0892 102.989 56.9603L110.872 46.0934L101.72 36.9422L90.8535 44.8261C87.7249 42.9204 84.2836 41.478 80.6257 40.589L78.5164 27.331H65.5742L63.465 40.5895C59.8073 41.4786 56.3666 42.9212 53.2382 44.8269L42.3705 36.9422L33.2191 46.0937L41.1038 56.9617C39.1983 60.09 37.756 63.5308 36.8672 67.1881L23.6075 69.2976V82.2399L36.8672 84.3494C37.7563 88.0067 39.1983 91.4472 41.1038 94.5756L33.2191 105.444L42.3705 114.596L53.2388 106.711C56.3671 108.617 59.8079 110.059 63.4652 110.948L65.5747 124.207H78.517L80.6262 110.949C84.2839 110.059 87.7249 108.617 90.8535 106.712L101.721 114.596L110.872 105.444L102.989 94.5772C104.895 91.4486 106.337 88.0073 107.226 84.3497L120.483 82.2399ZM72.0464 83.4812C67.7867 83.4812 64.3309 80.0282 64.3309 75.7685C64.3309 71.5087 67.7867 68.0557 72.0464 68.0557C76.3062 68.0557 79.7592 71.5087 79.7592 75.7685C79.7592 80.0282 76.3062 83.4812 72.0464 83.4812Z" fill="#CCCCCC"/>
<path d="M72.0464 51.1312C71.1336 51.1312 70.2347 51.1814 69.347 51.2791C57.0088 52.6218 47.4091 63.0758 47.4091 75.7685C47.4091 88.464 57.0088 98.9152 69.347 100.258C70.2347 100.356 71.1336 100.406 72.0464 100.406C85.6519 100.406 96.6837 89.3768 96.6837 75.7685C96.6837 62.163 85.6519 51.1312 72.0464 51.1312ZM64.3308 75.7685C64.3308 72.4578 66.4188 69.6329 69.3498 68.5414C70.1901 68.226 71.0973 68.0557 72.0464 68.0557C76.3061 68.0557 79.7591 71.5087 79.7591 75.7685C79.7591 80.0282 76.3061 83.4813 72.0464 83.4813C71.0973 83.4813 70.1901 83.311 69.3498 82.9955C66.4188 81.9041 64.3308 79.0791 64.3308 75.7685Z" fill="#999999"/>
<path d="M69.347 51.2791C57.0088 52.6218 47.4091 63.0758 47.4091 75.7685C47.4091 88.464 57.0088 98.9152 69.347 100.258C81.6852 98.9152 91.2878 88.464 91.2878 75.7685C91.2878 63.0758 81.6852 52.6218 69.347 51.2791ZM66.6505 83.4813C62.3908 83.4813 58.9349 80.0282 58.9349 75.7685C58.9349 71.5087 62.3908 68.0557 66.6505 68.0557C67.5996 68.0557 68.5096 68.226 69.3498 68.5414C72.2781 69.6357 74.3633 72.4578 74.3633 75.7685C74.3633 79.0791 72.2781 81.9013 69.3498 82.9955C68.5096 83.311 67.5996 83.4813 66.6505 83.4813Z" fill="#B3B3B3"/>
<path d="M69.4408 62.7715C62.2612 62.7715 56.4438 68.5917 56.4438 75.7685C56.4438 82.9481 62.2612 88.7655 69.4408 88.7655C76.6176 88.7655 82.4378 82.9481 82.4378 75.7685C82.4378 68.5917 76.6176 62.7715 69.4408 62.7715ZM69.4408 83.4812C65.1811 83.4812 61.7253 80.0282 61.7253 75.7685C61.7253 71.5087 65.1811 68.0557 69.4408 68.0557C73.7006 68.0557 77.1536 71.5087 77.1536 75.7685C77.1536 80.0282 73.7006 83.4812 69.4408 83.4812Z" fill="#999999"/>
<path d="M72.0464 62.7715C64.8668 62.7715 59.0494 68.5917 59.0494 75.7685C59.0494 82.9481 64.8668 88.7655 72.0464 88.7655C79.2232 88.7655 85.0434 82.9481 85.0434 75.7685C85.0434 68.5917 79.2232 62.7715 72.0464 62.7715ZM72.0464 83.4812C67.7867 83.4812 64.3309 80.0282 64.3309 75.7685C64.3309 71.5087 67.7867 68.0557 72.0464 68.0557C76.3062 68.0557 79.7592 71.5087 79.7592 75.7685C79.7592 80.0282 76.3062 83.4812 72.0464 83.4812Z" fill="#CCCCCC"/>
<path d="M72.0464 68.0557C69.9919 68.0557 68.1244 68.8569 66.7427 70.1716C68.2249 71.573 69.1517 73.5633 69.1517 75.7685C69.1517 77.9737 68.2249 79.964 66.7427 81.3654C68.1244 82.6801 69.9919 83.4813 72.0464 83.4813C76.3062 83.4813 79.7592 80.0282 79.7592 75.7685C79.7592 71.5087 76.3062 68.0557 72.0464 68.0557Z" fill="#999999"/>
<path d="M140.742 92.9426L144.626 84.7974H137.368L128.475 86.9262C126.961 84.8558 125.156 83.0659 123.141 81.5937L124.383 69.3255H117.125L112.341 77.1201C109.875 76.7363 107.333 76.7257 104.799 77.1195L107.273 69.3253H100.016L91.8701 72.6993L93.9989 81.5937C91.9288 83.1066 90.1392 84.9116 88.6672 86.9265L87.0298 84.7974H79.772L76.398 92.9426L84.1934 97.7271C83.8098 100.193 83.799 102.734 84.1928 105.268L76.3977 110.052L79.7717 118.197H87.0295L88.6667 116.068C90.1796 118.138 91.9843 119.928 93.9989 121.399L91.8699 130.295L100.015 133.669H107.273L104.8 125.873C107.265 126.257 109.807 126.267 112.34 125.874L117.124 133.669H124.382L124.43 126.789L123.141 121.401C125.211 119.888 127.001 118.083 128.473 116.068L137.368 118.197H144.626L140.742 110.052L132.947 105.268C133.331 102.802 133.342 100.26 132.948 97.726L140.742 92.9426ZM110.581 106.351C107.9 107.461 104.825 106.189 103.715 103.508C102.604 100.827 103.879 97.7528 106.56 96.6424C109.241 95.5319 112.314 96.8048 113.425 99.4857C114.535 102.167 113.262 105.24 110.581 106.351Z" fill="#999999"/>
<path d="M148 92.9426L144.626 84.7974L135.732 86.9262C134.219 84.8558 132.414 83.0659 130.399 81.5937L132.528 72.6993L124.382 69.3255L119.598 77.1201C117.132 76.7363 114.591 76.7257 112.057 77.1195L107.273 69.3253L99.1276 72.6993L101.256 81.5937C99.1862 83.1066 97.3966 84.9116 95.9247 86.9265L87.0294 84.7974L83.6554 92.9426L91.4508 97.7271C91.0673 100.193 91.0564 102.734 91.4503 105.268L83.6552 110.052L87.0292 118.197L95.9241 116.068C97.4371 118.138 99.2418 119.928 101.256 121.399L99.1273 130.295L107.272 133.669L112.057 125.873C114.523 126.257 117.064 126.267 119.598 125.874L124.382 133.669L132.527 130.295L130.398 121.4C132.468 119.887 134.258 118.083 135.73 116.067L144.625 118.197L147.999 110.051L140.205 105.267C140.588 102.801 140.599 100.26 140.205 97.7257L148 92.9426ZM117.839 106.351C115.158 107.461 112.083 106.189 110.973 103.508C109.862 100.827 111.137 97.7528 113.818 96.6424C116.499 95.5319 119.572 96.8048 120.683 99.4857C121.793 102.167 120.52 105.24 117.839 106.351Z" fill="#B3B3B3"/>
<path d="M115.829 84.7137C115.207 84.7137 114.594 84.748 113.99 84.8145C105.585 85.7292 99.0453 92.8505 99.0453 101.497C99.0453 110.145 105.585 117.265 113.99 118.18C114.594 118.246 115.207 118.28 115.829 118.28C125.097 118.28 132.612 110.767 132.612 101.497C132.612 92.2288 125.097 84.7137 115.829 84.7137ZM110.573 101.497C110.573 99.2418 111.995 97.3174 113.992 96.5737C114.564 96.3588 115.182 96.2429 115.829 96.2429C118.73 96.2429 121.083 98.5953 121.083 101.497C121.083 104.399 118.73 106.751 115.829 106.751C115.182 106.751 114.564 106.635 113.992 106.42C111.995 105.677 110.573 103.752 110.573 101.497Z" fill="#999999"/>
<path d="M113.99 84.8145C105.585 85.7292 99.0453 92.8505 99.0453 101.497C99.0453 110.145 105.585 117.265 113.99 118.18C122.395 117.265 128.936 110.145 128.936 101.497C128.936 92.8505 122.395 85.7292 113.99 84.8145ZM112.153 106.751C109.251 106.751 106.897 104.399 106.897 101.497C106.897 98.5953 109.251 96.2429 112.153 96.2429C112.799 96.2429 113.419 96.3588 113.992 96.5737C115.986 97.319 117.407 99.2418 117.407 101.497C117.407 103.752 115.986 105.675 113.992 106.42C113.419 106.635 112.799 106.751 112.153 106.751Z" fill="#CCCCCC"/>
<path d="M114.054 92.6433C109.163 92.6433 105.2 96.608 105.2 101.497C105.2 106.388 109.163 110.351 114.054 110.351C118.943 110.351 122.907 106.388 122.907 101.497C122.908 96.608 118.943 92.6433 114.054 92.6433ZM114.054 106.751C111.152 106.751 108.798 104.399 108.798 101.497C108.798 98.5952 111.152 96.2429 114.054 96.2429C116.956 96.2429 119.308 98.5952 119.308 101.497C119.308 104.399 116.956 106.751 114.054 106.751Z" fill="#999999"/>
<path d="M115.829 92.6433C110.938 92.6433 106.975 96.608 106.975 101.497C106.975 106.388 110.938 110.351 115.829 110.351C120.718 110.351 124.682 106.388 124.682 101.497C124.683 96.608 120.718 92.6433 115.829 92.6433ZM115.829 106.751C112.927 106.751 110.573 104.399 110.573 101.497C110.573 98.5952 112.927 96.2429 115.829 96.2429C118.73 96.2429 121.083 98.5952 121.083 101.497C121.083 104.399 118.73 106.751 115.829 106.751Z" fill="#B3B3B3"/>
<path d="M115.829 96.2429C114.429 96.2429 113.157 96.7886 112.216 97.6844C113.225 98.6391 113.857 99.9949 113.857 101.497C113.857 102.999 113.225 104.355 112.216 105.31C113.157 106.205 114.429 106.751 115.829 106.751C118.73 106.751 121.083 104.398 121.083 101.497C121.083 98.595 118.73 96.2429 115.829 96.2429Z" fill="#999999"/>
</svg>
